<mxfile host="app.diagrams.net" modified="2021-06-22T15:43:45.739Z" agent="5.0 (Windows)" etag="fzqqh2GVYH6QoZ9lVAPJ" version="14.8.0" type="github" pages="2">
  <diagram name="Page-1" id="c4acf3e9-155e-7222-9cf6-157b1a14988f">
    <mxGraphModel dx="1038" dy="524" grid="1" gridSize="10" guides="1" tooltips="1" connect="1" arrows="1" fold="1" page="1" pageScale="1" pageWidth="850" pageHeight="1100" background="none" math="0" shadow="0">
      <root>
        <mxCell id="0" />
        <mxCell id="1" parent="0" />
        <mxCell id="17acba5748e5396b-1" value="frame" style="shape=umlFrame;whiteSpace=wrap;html=1;rounded=0;shadow=0;comic=0;labelBackgroundColor=none;strokeWidth=1;fontFamily=Verdana;fontSize=10;align=center;" parent="1" vertex="1">
          <mxGeometry x="20" y="20" width="820" height="1060" as="geometry" />
        </mxCell>
        <mxCell id="5d2195bd80daf111-38" style="edgeStyle=orthogonalEdgeStyle;rounded=0;html=1;dashed=1;labelBackgroundColor=none;startFill=0;endArrow=open;endFill=0;endSize=10;fontFamily=Verdana;fontSize=10;" parent="1" source="17acba5748e5396b-2" target="5d2195bd80daf111-9" edge="1">
          <mxGeometry relative="1" as="geometry">
            <Array as="points">
              <mxPoint x="590" y="721" />
            </Array>
          </mxGeometry>
        </mxCell>
        <mxCell id="5d2195bd80daf111-40" style="edgeStyle=orthogonalEdgeStyle;rounded=0;html=1;dashed=1;labelBackgroundColor=none;startFill=0;endArrow=open;endFill=0;endSize=10;fontFamily=Verdana;fontSize=10;" parent="1" source="17acba5748e5396b-2" target="5d2195bd80daf111-1" edge="1">
          <mxGeometry relative="1" as="geometry">
            <Array as="points" />
          </mxGeometry>
        </mxCell>
        <mxCell id="17acba5748e5396b-2" value="Classname" style="swimlane;html=1;fontStyle=0;childLayout=stackLayout;horizontal=1;startSize=26;fillColor=none;horizontalStack=0;resizeParent=1;resizeLast=0;collapsible=1;marginBottom=0;swimlaneFillColor=#ffffff;rounded=0;shadow=0;comic=0;labelBackgroundColor=none;strokeWidth=1;fontFamily=Verdana;fontSize=10;align=center;" parent="1" vertex="1">
          <mxGeometry x="650" y="628" width="160" height="186" as="geometry" />
        </mxCell>
        <mxCell id="17acba5748e5396b-3" value="+ field: type" style="text;html=1;strokeColor=none;fillColor=none;align=left;verticalAlign=top;spacingLeft=4;spacingRight=4;whiteSpace=wrap;overflow=hidden;rotatable=0;points=[[0,0.5],[1,0.5]];portConstraint=eastwest;" parent="17acba5748e5396b-2" vertex="1">
          <mxGeometry y="26" width="160" height="26" as="geometry" />
        </mxCell>
        <mxCell id="17acba5748e5396b-4" value="+ field: type" style="text;html=1;strokeColor=none;fillColor=none;align=left;verticalAlign=top;spacingLeft=4;spacingRight=4;whiteSpace=wrap;overflow=hidden;rotatable=0;points=[[0,0.5],[1,0.5]];portConstraint=eastwest;" parent="17acba5748e5396b-2" vertex="1">
          <mxGeometry y="52" width="160" height="26" as="geometry" />
        </mxCell>
        <mxCell id="17acba5748e5396b-6" value="+ field: type" style="text;html=1;strokeColor=none;fillColor=none;align=left;verticalAlign=top;spacingLeft=4;spacingRight=4;whiteSpace=wrap;overflow=hidden;rotatable=0;points=[[0,0.5],[1,0.5]];portConstraint=eastwest;" parent="17acba5748e5396b-2" vertex="1">
          <mxGeometry y="78" width="160" height="26" as="geometry" />
        </mxCell>
        <mxCell id="17acba5748e5396b-9" value="+ field: type" style="text;html=1;strokeColor=none;fillColor=none;align=left;verticalAlign=top;spacingLeft=4;spacingRight=4;whiteSpace=wrap;overflow=hidden;rotatable=0;points=[[0,0.5],[1,0.5]];portConstraint=eastwest;" parent="17acba5748e5396b-2" vertex="1">
          <mxGeometry y="104" width="160" height="26" as="geometry" />
        </mxCell>
        <mxCell id="17acba5748e5396b-10" value="+ field: type" style="text;html=1;strokeColor=none;fillColor=none;align=left;verticalAlign=top;spacingLeft=4;spacingRight=4;whiteSpace=wrap;overflow=hidden;rotatable=0;points=[[0,0.5],[1,0.5]];portConstraint=eastwest;" parent="17acba5748e5396b-2" vertex="1">
          <mxGeometry y="130" width="160" height="26" as="geometry" />
        </mxCell>
        <mxCell id="17acba5748e5396b-8" value="+ field: type" style="text;html=1;strokeColor=none;fillColor=none;align=left;verticalAlign=top;spacingLeft=4;spacingRight=4;whiteSpace=wrap;overflow=hidden;rotatable=0;points=[[0,0.5],[1,0.5]];portConstraint=eastwest;" parent="17acba5748e5396b-2" vertex="1">
          <mxGeometry y="156" width="160" height="26" as="geometry" />
        </mxCell>
        <mxCell id="17acba5748e5396b-20" value="PlainUser" style="swimlane;html=1;fontStyle=0;childLayout=stackLayout;horizontal=1;startSize=26;fillColor=none;horizontalStack=0;resizeParent=1;resizeLast=0;collapsible=1;marginBottom=0;swimlaneFillColor=#ffffff;rounded=0;shadow=0;comic=0;labelBackgroundColor=none;strokeWidth=1;fontFamily=Verdana;fontSize=10;align=center;" parent="1" vertex="1">
          <mxGeometry x="350" y="42" width="160" height="110" as="geometry" />
        </mxCell>
        <mxCell id="17acba5748e5396b-21" value="+ field: type" style="text;html=1;strokeColor=none;fillColor=none;align=left;verticalAlign=top;spacingLeft=4;spacingRight=4;whiteSpace=wrap;overflow=hidden;rotatable=0;points=[[0,0.5],[1,0.5]];portConstraint=eastwest;" parent="17acba5748e5396b-20" vertex="1">
          <mxGeometry y="26" width="160" height="26" as="geometry" />
        </mxCell>
        <mxCell id="17acba5748e5396b-24" value="+ field: type" style="text;html=1;strokeColor=none;fillColor=none;align=left;verticalAlign=top;spacingLeft=4;spacingRight=4;whiteSpace=wrap;overflow=hidden;rotatable=0;points=[[0,0.5],[1,0.5]];portConstraint=eastwest;" parent="17acba5748e5396b-20" vertex="1">
          <mxGeometry y="52" width="160" height="26" as="geometry" />
        </mxCell>
        <mxCell id="17acba5748e5396b-26" value="+ field: type" style="text;html=1;strokeColor=none;fillColor=none;align=left;verticalAlign=top;spacingLeft=4;spacingRight=4;whiteSpace=wrap;overflow=hidden;rotatable=0;points=[[0,0.5],[1,0.5]];portConstraint=eastwest;" parent="17acba5748e5396b-20" vertex="1">
          <mxGeometry y="78" width="160" height="26" as="geometry" />
        </mxCell>
        <mxCell id="17acba5748e5396b-30" value="Vehicle" style="swimlane;html=1;fontStyle=0;childLayout=stackLayout;horizontal=1;startSize=26;fillColor=none;horizontalStack=0;resizeParent=1;resizeLast=0;collapsible=1;marginBottom=0;swimlaneFillColor=#ffffff;rounded=0;shadow=0;comic=0;labelBackgroundColor=none;strokeWidth=1;fontFamily=Verdana;fontSize=10;align=center;" parent="1" vertex="1">
          <mxGeometry x="580" y="87" width="160" height="110" as="geometry" />
        </mxCell>
        <mxCell id="17acba5748e5396b-31" value="+ field: type" style="text;html=1;strokeColor=none;fillColor=none;align=left;verticalAlign=top;spacingLeft=4;spacingRight=4;whiteSpace=wrap;overflow=hidden;rotatable=0;points=[[0,0.5],[1,0.5]];portConstraint=eastwest;" parent="17acba5748e5396b-30" vertex="1">
          <mxGeometry y="26" width="160" height="26" as="geometry" />
        </mxCell>
        <mxCell id="17acba5748e5396b-32" value="+ field: type" style="text;html=1;strokeColor=none;fillColor=none;align=left;verticalAlign=top;spacingLeft=4;spacingRight=4;whiteSpace=wrap;overflow=hidden;rotatable=0;points=[[0,0.5],[1,0.5]];portConstraint=eastwest;" parent="17acba5748e5396b-30" vertex="1">
          <mxGeometry y="52" width="160" height="26" as="geometry" />
        </mxCell>
        <mxCell id="17acba5748e5396b-33" value="+ field: type" style="text;html=1;strokeColor=none;fillColor=none;align=left;verticalAlign=top;spacingLeft=4;spacingRight=4;whiteSpace=wrap;overflow=hidden;rotatable=0;points=[[0,0.5],[1,0.5]];portConstraint=eastwest;" parent="17acba5748e5396b-30" vertex="1">
          <mxGeometry y="78" width="160" height="26" as="geometry" />
        </mxCell>
        <mxCell id="17acba5748e5396b-44" value="Classname" style="swimlane;html=1;fontStyle=0;childLayout=stackLayout;horizontal=1;startSize=26;fillColor=none;horizontalStack=0;resizeParent=1;resizeLast=0;collapsible=1;marginBottom=0;swimlaneFillColor=#ffffff;rounded=0;shadow=0;comic=0;labelBackgroundColor=none;strokeWidth=1;fontFamily=Verdana;fontSize=10;align=center;" parent="1" vertex="1">
          <mxGeometry x="650" y="978" width="160" height="83" as="geometry" />
        </mxCell>
        <mxCell id="17acba5748e5396b-45" value="+ field: type" style="text;html=1;strokeColor=none;fillColor=none;align=left;verticalAlign=top;spacingLeft=4;spacingRight=4;whiteSpace=wrap;overflow=hidden;rotatable=0;points=[[0,0.5],[1,0.5]];portConstraint=eastwest;" parent="17acba5748e5396b-44" vertex="1">
          <mxGeometry y="26" width="160" height="26" as="geometry" />
        </mxCell>
        <mxCell id="17acba5748e5396b-47" value="+ field: type" style="text;html=1;strokeColor=none;fillColor=none;align=left;verticalAlign=top;spacingLeft=4;spacingRight=4;whiteSpace=wrap;overflow=hidden;rotatable=0;points=[[0,0.5],[1,0.5]];portConstraint=eastwest;" parent="17acba5748e5396b-44" vertex="1">
          <mxGeometry y="52" width="160" height="26" as="geometry" />
        </mxCell>
        <mxCell id="5d2195bd80daf111-39" style="edgeStyle=orthogonalEdgeStyle;rounded=0;html=1;dashed=1;labelBackgroundColor=none;startFill=0;endArrow=open;endFill=0;endSize=10;fontFamily=Verdana;fontSize=10;" parent="1" source="5d2195bd80daf111-1" target="17acba5748e5396b-44" edge="1">
          <mxGeometry relative="1" as="geometry" />
        </mxCell>
        <mxCell id="5d2195bd80daf111-1" value="Classname" style="swimlane;html=1;fontStyle=0;childLayout=stackLayout;horizontal=1;startSize=26;fillColor=none;horizontalStack=0;resizeParent=1;resizeLast=0;collapsible=1;marginBottom=0;swimlaneFillColor=#ffffff;rounded=0;shadow=0;comic=0;labelBackgroundColor=none;strokeWidth=1;fontFamily=Verdana;fontSize=10;align=center;" parent="1" vertex="1">
          <mxGeometry x="650" y="838" width="160" height="110" as="geometry" />
        </mxCell>
        <mxCell id="5d2195bd80daf111-2" value="+ field: type" style="text;html=1;strokeColor=none;fillColor=none;align=left;verticalAlign=top;spacingLeft=4;spacingRight=4;whiteSpace=wrap;overflow=hidden;rotatable=0;points=[[0,0.5],[1,0.5]];portConstraint=eastwest;" parent="5d2195bd80daf111-1" vertex="1">
          <mxGeometry y="26" width="160" height="26" as="geometry" />
        </mxCell>
        <mxCell id="5d2195bd80daf111-3" value="+ field: type" style="text;html=1;strokeColor=none;fillColor=none;align=left;verticalAlign=top;spacingLeft=4;spacingRight=4;whiteSpace=wrap;overflow=hidden;rotatable=0;points=[[0,0.5],[1,0.5]];portConstraint=eastwest;" parent="5d2195bd80daf111-1" vertex="1">
          <mxGeometry y="52" width="160" height="26" as="geometry" />
        </mxCell>
        <mxCell id="5d2195bd80daf111-4" value="+ field: type" style="text;html=1;strokeColor=none;fillColor=none;align=left;verticalAlign=top;spacingLeft=4;spacingRight=4;whiteSpace=wrap;overflow=hidden;rotatable=0;points=[[0,0.5],[1,0.5]];portConstraint=eastwest;" parent="5d2195bd80daf111-1" vertex="1">
          <mxGeometry y="78" width="160" height="26" as="geometry" />
        </mxCell>
        <mxCell id="5d2195bd80daf111-41" style="edgeStyle=orthogonalEdgeStyle;rounded=0;html=1;dashed=1;labelBackgroundColor=none;startFill=0;endArrow=open;endFill=0;endSize=10;fontFamily=Verdana;fontSize=10;" parent="1" source="5d2195bd80daf111-5" target="17acba5748e5396b-2" edge="1">
          <mxGeometry relative="1" as="geometry">
            <Array as="points" />
          </mxGeometry>
        </mxCell>
        <mxCell id="5d2195bd80daf111-5" value="Classname" style="swimlane;html=1;fontStyle=0;childLayout=stackLayout;horizontal=1;startSize=26;fillColor=none;horizontalStack=0;resizeParent=1;resizeLast=0;collapsible=1;marginBottom=0;swimlaneFillColor=#ffffff;rounded=0;shadow=0;comic=0;labelBackgroundColor=none;strokeWidth=1;fontFamily=Verdana;fontSize=10;align=center;" parent="1" vertex="1">
          <mxGeometry x="650" y="520" width="160" height="83" as="geometry" />
        </mxCell>
        <mxCell id="5d2195bd80daf111-6" value="+ field: type" style="text;html=1;strokeColor=none;fillColor=none;align=left;verticalAlign=top;spacingLeft=4;spacingRight=4;whiteSpace=wrap;overflow=hidden;rotatable=0;points=[[0,0.5],[1,0.5]];portConstraint=eastwest;" parent="5d2195bd80daf111-5" vertex="1">
          <mxGeometry y="26" width="160" height="26" as="geometry" />
        </mxCell>
        <mxCell id="5d2195bd80daf111-7" value="+ field: type" style="text;html=1;strokeColor=none;fillColor=none;align=left;verticalAlign=top;spacingLeft=4;spacingRight=4;whiteSpace=wrap;overflow=hidden;rotatable=0;points=[[0,0.5],[1,0.5]];portConstraint=eastwest;" parent="5d2195bd80daf111-5" vertex="1">
          <mxGeometry y="52" width="160" height="26" as="geometry" />
        </mxCell>
        <mxCell id="5d2195bd80daf111-8" value="&amp;laquo;interface&amp;raquo;&lt;br&gt;&lt;b&gt;Name&lt;/b&gt;" style="html=1;rounded=0;shadow=0;comic=0;labelBackgroundColor=none;strokeWidth=1;fontFamily=Verdana;fontSize=10;align=center;" parent="1" vertex="1">
          <mxGeometry x="490" y="1004" width="110" height="50" as="geometry" />
        </mxCell>
        <mxCell id="5d2195bd80daf111-35" style="edgeStyle=orthogonalEdgeStyle;rounded=0;html=1;dashed=1;labelBackgroundColor=none;startFill=0;endArrow=open;endFill=0;endSize=10;fontFamily=Verdana;fontSize=10;" parent="1" source="5d2195bd80daf111-9" target="5d2195bd80daf111-8" edge="1">
          <mxGeometry relative="1" as="geometry">
            <Array as="points">
              <mxPoint x="545" y="970" />
              <mxPoint x="545" y="970" />
            </Array>
          </mxGeometry>
        </mxCell>
        <mxCell id="5d2195bd80daf111-36" style="edgeStyle=orthogonalEdgeStyle;rounded=0;html=1;dashed=1;labelBackgroundColor=none;startFill=0;endArrow=open;endFill=0;endSize=10;fontFamily=Verdana;fontSize=10;" parent="1" source="5d2195bd80daf111-9" target="5d2195bd80daf111-13" edge="1">
          <mxGeometry relative="1" as="geometry">
            <Array as="points">
              <mxPoint x="550" y="520" />
            </Array>
          </mxGeometry>
        </mxCell>
        <mxCell id="5d2195bd80daf111-9" value="&lt;p style=&quot;margin:0px;margin-top:4px;text-align:center;&quot;&gt;&lt;i&gt;&amp;lt;&amp;lt;Interface&amp;gt;&amp;gt;&lt;/i&gt;&lt;br/&gt;&lt;b&gt;Interface&lt;/b&gt;&lt;/p&gt;&lt;hr size=&quot;1&quot;/&gt;&lt;p style=&quot;margin:0px;margin-left:4px;&quot;&gt;+ field1: Type&lt;br/&gt;+ field2: Type&lt;/p&gt;&lt;hr size=&quot;1&quot;/&gt;&lt;p style=&quot;margin:0px;margin-left:4px;&quot;&gt;+ method1(Type): Type&lt;br/&gt;+ method2(Type, Type): Type&lt;/p&gt;" style="verticalAlign=top;align=left;overflow=fill;fontSize=12;fontFamily=Helvetica;html=1;rounded=0;shadow=0;comic=0;labelBackgroundColor=none;strokeWidth=1" parent="1" vertex="1">
          <mxGeometry x="415" y="823" width="190" height="140" as="geometry" />
        </mxCell>
        <mxCell id="5d2195bd80daf111-10" value="&lt;p style=&quot;margin:0px;margin-top:4px;text-align:center;&quot;&gt;&lt;i&gt;&amp;lt;&amp;lt;Interface&amp;gt;&amp;gt;&lt;/i&gt;&lt;br/&gt;&lt;b&gt;Interface&lt;/b&gt;&lt;/p&gt;&lt;hr size=&quot;1&quot;/&gt;&lt;p style=&quot;margin:0px;margin-left:4px;&quot;&gt;+ field1: Type&lt;br/&gt;+ field2: Type&lt;/p&gt;&lt;hr size=&quot;1&quot;/&gt;&lt;p style=&quot;margin:0px;margin-left:4px;&quot;&gt;+ method1(Type): Type&lt;br/&gt;+ method2(Type, Type): Type&lt;/p&gt;" style="verticalAlign=top;align=left;overflow=fill;fontSize=12;fontFamily=Helvetica;html=1;rounded=0;shadow=0;comic=0;labelBackgroundColor=none;strokeWidth=1" parent="1" vertex="1">
          <mxGeometry x="350" y="572" width="190" height="140" as="geometry" />
        </mxCell>
        <mxCell id="5d2195bd80daf111-34" style="edgeStyle=orthogonalEdgeStyle;rounded=0;html=1;dashed=1;labelBackgroundColor=none;startFill=0;endArrow=open;endFill=0;endSize=10;fontFamily=Verdana;fontSize=10;" parent="1" source="5d2195bd80daf111-11" target="5d2195bd80daf111-8" edge="1">
          <mxGeometry relative="1" as="geometry">
            <Array as="points">
              <mxPoint x="410" y="1029" />
              <mxPoint x="410" y="1029" />
            </Array>
          </mxGeometry>
        </mxCell>
        <mxCell id="5d2195bd80daf111-11" value="&lt;p style=&quot;margin:0px;margin-top:4px;text-align:center;&quot;&gt;&lt;i&gt;&amp;lt;&amp;lt;Interface&amp;gt;&amp;gt;&lt;/i&gt;&lt;br/&gt;&lt;b&gt;Interface&lt;/b&gt;&lt;/p&gt;&lt;hr size=&quot;1&quot;/&gt;&lt;p style=&quot;margin:0px;margin-left:4px;&quot;&gt;+ field1: Type&lt;br/&gt;+ field2: Type&lt;/p&gt;&lt;hr size=&quot;1&quot;/&gt;&lt;p style=&quot;margin:0px;margin-left:4px;&quot;&gt;+ method1(Type): Type&lt;br/&gt;+ method2(Type, Type): Type&lt;/p&gt;" style="verticalAlign=top;align=left;overflow=fill;fontSize=12;fontFamily=Helvetica;html=1;rounded=0;shadow=0;comic=0;labelBackgroundColor=none;strokeWidth=1" parent="1" vertex="1">
          <mxGeometry x="190" y="908" width="190" height="140" as="geometry" />
        </mxCell>
        <mxCell id="5d2195bd80daf111-12" value="&lt;p style=&quot;margin:0px;margin-top:4px;text-align:center;&quot;&gt;&lt;i&gt;&amp;lt;&amp;lt;Interface&amp;gt;&amp;gt;&lt;/i&gt;&lt;br/&gt;&lt;b&gt;Interface&lt;/b&gt;&lt;/p&gt;&lt;hr size=&quot;1&quot;/&gt;&lt;p style=&quot;margin:0px;margin-left:4px;&quot;&gt;+ field1: Type&lt;br/&gt;+ field2: Type&lt;/p&gt;&lt;hr size=&quot;1&quot;/&gt;&lt;p style=&quot;margin:0px;margin-left:4px;&quot;&gt;+ method1(Type): Type&lt;br/&gt;+ method2(Type, Type): Type&lt;/p&gt;" style="verticalAlign=top;align=left;overflow=fill;fontSize=12;fontFamily=Helvetica;html=1;rounded=0;shadow=0;comic=0;labelBackgroundColor=none;strokeWidth=1" parent="1" vertex="1">
          <mxGeometry x="190" y="744" width="190" height="140" as="geometry" />
        </mxCell>
        <mxCell id="5d2195bd80daf111-13" value="«interface»&lt;br&gt;OwnerUser" style="html=1;rounded=0;shadow=0;comic=0;labelBackgroundColor=none;strokeWidth=1;fontFamily=Verdana;fontSize=10;align=center;" parent="1" vertex="1">
          <mxGeometry x="380" y="495" width="110" height="50" as="geometry" />
        </mxCell>
        <mxCell id="5d2195bd80daf111-14" value="&amp;laquo;interface&amp;raquo;&lt;br&gt;&lt;b&gt;Name&lt;/b&gt;" style="html=1;rounded=0;shadow=0;comic=0;labelBackgroundColor=none;strokeWidth=1;fontFamily=Verdana;fontSize=10;align=center;" parent="1" vertex="1">
          <mxGeometry x="380" y="421" width="110" height="50" as="geometry" />
        </mxCell>
        <mxCell id="5d2195bd80daf111-26" style="edgeStyle=orthogonalEdgeStyle;rounded=0;html=1;dashed=1;labelBackgroundColor=none;startFill=0;endArrow=open;endFill=0;endSize=10;fontFamily=Verdana;fontSize=10;" parent="1" source="5d2195bd80daf111-15" target="5d2195bd80daf111-17" edge="1">
          <mxGeometry relative="1" as="geometry">
            <Array as="points" />
          </mxGeometry>
        </mxCell>
        <mxCell id="5d2195bd80daf111-15" value="&lt;p style=&quot;margin: 0px ; margin-top: 4px ; text-align: center&quot;&gt;&lt;i&gt;&amp;lt;&amp;lt;Interface&amp;gt;&amp;gt;&lt;/i&gt;&lt;br&gt;VehicleIsInUse&lt;/p&gt;&lt;hr size=&quot;1&quot;&gt;&lt;p style=&quot;margin: 0px ; margin-left: 4px&quot;&gt;+ field1: Type&lt;br&gt;+ field2: Type&lt;/p&gt;&lt;hr size=&quot;1&quot;&gt;&lt;p style=&quot;margin: 0px ; margin-left: 4px&quot;&gt;+ method1(Type): Type&lt;br&gt;+ method2(Type, Type): Type&lt;/p&gt;" style="verticalAlign=top;align=left;overflow=fill;fontSize=12;fontFamily=Helvetica;html=1;rounded=0;shadow=0;comic=0;labelBackgroundColor=none;strokeWidth=1" parent="1" vertex="1">
          <mxGeometry x="450" y="230" width="190" height="140" as="geometry" />
        </mxCell>
        <mxCell id="5d2195bd80daf111-16" value="Text" style="text;html=1;resizable=0;points=[];autosize=1;align=left;verticalAlign=top;spacingTop=-4;fontSize=10;fontFamily=Verdana;fontColor=#000000;" parent="1" vertex="1">
          <mxGeometry x="450" y="454" width="40" height="10" as="geometry" />
        </mxCell>
        <mxCell id="5d2195bd80daf111-17" value="«interface»&lt;br&gt;&lt;b&gt;Bill&lt;/b&gt;" style="html=1;rounded=0;shadow=0;comic=0;labelBackgroundColor=none;strokeWidth=1;fontFamily=Verdana;fontSize=10;align=center;" parent="1" vertex="1">
          <mxGeometry x="685" y="275" width="110" height="50" as="geometry" />
        </mxCell>
        <mxCell id="5d2195bd80daf111-21" style="edgeStyle=orthogonalEdgeStyle;rounded=0;html=1;labelBackgroundColor=none;startFill=0;endArrow=open;endFill=0;endSize=10;fontFamily=Verdana;fontSize=10;dashed=1;" parent="1" source="5d2195bd80daf111-18" target="17acba5748e5396b-20" edge="1">
          <mxGeometry relative="1" as="geometry" />
        </mxCell>
        <mxCell id="5d2195bd80daf111-22" style="edgeStyle=orthogonalEdgeStyle;rounded=0;html=1;exitX=1;exitY=0.75;dashed=1;labelBackgroundColor=none;startFill=0;endArrow=open;endFill=0;endSize=10;fontFamily=Verdana;fontSize=10;" parent="1" source="5d2195bd80daf111-18" target="17acba5748e5396b-30" edge="1">
          <mxGeometry relative="1" as="geometry">
            <Array as="points">
              <mxPoint x="530" y="192" />
              <mxPoint x="530" y="142" />
            </Array>
          </mxGeometry>
        </mxCell>
        <mxCell id="5d2195bd80daf111-18" value="&lt;p style=&quot;margin: 0px ; margin-top: 4px ; text-align: center&quot;&gt;&lt;i&gt;&amp;lt;&amp;lt;Interface&amp;gt;&amp;gt;&lt;/i&gt;&lt;br&gt;SearchingVehicle&lt;/p&gt;&lt;hr size=&quot;1&quot;&gt;&lt;p style=&quot;margin: 0px ; margin-left: 4px&quot;&gt;+ field1: Type&lt;br&gt;+ field2: Type&lt;/p&gt;&lt;hr size=&quot;1&quot;&gt;&lt;p style=&quot;margin: 0px ; margin-left: 4px&quot;&gt;+ method1(Type): Type&lt;br&gt;+ method2(Type, Type): Type&lt;/p&gt;" style="verticalAlign=top;align=left;overflow=fill;fontSize=12;fontFamily=Helvetica;html=1;rounded=0;shadow=0;comic=0;labelBackgroundColor=none;strokeWidth=1" parent="1" vertex="1">
          <mxGeometry x="60" y="87" width="190" height="140" as="geometry" />
        </mxCell>
        <mxCell id="5d2195bd80daf111-23" style="edgeStyle=orthogonalEdgeStyle;rounded=0;html=1;dashed=1;labelBackgroundColor=none;startFill=0;endArrow=open;endFill=0;endSize=10;fontFamily=Verdana;fontSize=10;" parent="1" source="5d2195bd80daf111-19" target="17acba5748e5396b-20" edge="1">
          <mxGeometry relative="1" as="geometry">
            <Array as="points">
              <mxPoint x="320" y="290" />
              <mxPoint x="320" y="120" />
            </Array>
          </mxGeometry>
        </mxCell>
        <mxCell id="5d2195bd80daf111-24" style="edgeStyle=orthogonalEdgeStyle;rounded=0;html=1;dashed=1;labelBackgroundColor=none;startFill=0;endArrow=open;endFill=0;endSize=10;fontFamily=Verdana;fontSize=10;" parent="1" source="5d2195bd80daf111-19" target="17acba5748e5396b-30" edge="1">
          <mxGeometry relative="1" as="geometry">
            <Array as="points">
              <mxPoint x="350" y="310" />
              <mxPoint x="350" y="210" />
              <mxPoint x="550" y="210" />
              <mxPoint x="550" y="160" />
            </Array>
          </mxGeometry>
        </mxCell>
        <mxCell id="5d2195bd80daf111-25" style="edgeStyle=orthogonalEdgeStyle;rounded=0;html=1;dashed=1;labelBackgroundColor=none;startFill=0;endArrow=open;endFill=0;endSize=10;fontFamily=Verdana;fontSize=10;" parent="1" source="5d2195bd80daf111-19" target="5d2195bd80daf111-15" edge="1">
          <mxGeometry relative="1" as="geometry">
            <Array as="points">
              <mxPoint x="370" y="340" />
              <mxPoint x="370" y="300" />
            </Array>
          </mxGeometry>
        </mxCell>
        <mxCell id="5d2195bd80daf111-27" style="edgeStyle=orthogonalEdgeStyle;rounded=0;html=1;exitX=1;exitY=0.75;dashed=1;labelBackgroundColor=none;startFill=0;endArrow=open;endFill=0;endSize=10;fontFamily=Verdana;fontSize=10;" parent="1" source="5d2195bd80daf111-19" target="5d2195bd80daf111-14" edge="1">
          <mxGeometry relative="1" as="geometry">
            <Array as="points">
              <mxPoint x="320" y="375" />
              <mxPoint x="320" y="440" />
            </Array>
          </mxGeometry>
        </mxCell>
        <mxCell id="5d2195bd80daf111-19" value="&lt;p style=&quot;margin: 0px ; margin-top: 4px ; text-align: center&quot;&gt;&lt;i&gt;&amp;lt;&amp;lt;Interface&amp;gt;&amp;gt;&lt;/i&gt;&lt;br&gt;UsingVehicle&lt;br&gt;&lt;/p&gt;&lt;hr size=&quot;1&quot;&gt;&lt;p style=&quot;margin: 0px ; margin-left: 4px&quot;&gt;+ field1: Type&lt;br&gt;+ field2: Type&lt;/p&gt;&lt;hr size=&quot;1&quot;&gt;&lt;p style=&quot;margin: 0px ; margin-left: 4px&quot;&gt;+ method1(Type): Type&lt;br&gt;+ method2(Type, Type): Type&lt;/p&gt;" style="verticalAlign=top;align=left;overflow=fill;fontSize=12;fontFamily=Helvetica;html=1;rounded=0;shadow=0;comic=0;labelBackgroundColor=none;strokeWidth=1" parent="1" vertex="1">
          <mxGeometry x="60" y="270" width="190" height="140" as="geometry" />
        </mxCell>
        <mxCell id="5d2195bd80daf111-28" style="edgeStyle=orthogonalEdgeStyle;rounded=0;html=1;dashed=1;labelBackgroundColor=none;startFill=0;endArrow=open;endFill=0;endSize=10;fontFamily=Verdana;fontSize=10;" parent="1" source="5d2195bd80daf111-20" target="5d2195bd80daf111-14" edge="1">
          <mxGeometry relative="1" as="geometry">
            <Array as="points">
              <mxPoint x="320" y="490" />
              <mxPoint x="320" y="460" />
            </Array>
          </mxGeometry>
        </mxCell>
        <mxCell id="5d2195bd80daf111-29" style="edgeStyle=orthogonalEdgeStyle;rounded=0;html=1;dashed=1;labelBackgroundColor=none;startFill=0;endArrow=open;endFill=0;endSize=10;fontFamily=Verdana;fontSize=10;" parent="1" source="5d2195bd80daf111-20" target="5d2195bd80daf111-13" edge="1">
          <mxGeometry relative="1" as="geometry" />
        </mxCell>
        <mxCell id="5d2195bd80daf111-30" style="edgeStyle=orthogonalEdgeStyle;rounded=0;html=1;dashed=1;labelBackgroundColor=none;startFill=0;endArrow=open;endFill=0;endSize=10;fontFamily=Verdana;fontSize=10;" parent="1" source="5d2195bd80daf111-20" target="5d2195bd80daf111-10" edge="1">
          <mxGeometry relative="1" as="geometry">
            <Array as="points">
              <mxPoint x="300" y="580" />
              <mxPoint x="300" y="642" />
            </Array>
          </mxGeometry>
        </mxCell>
        <mxCell id="5d2195bd80daf111-31" style="edgeStyle=orthogonalEdgeStyle;rounded=0;html=1;dashed=1;labelBackgroundColor=none;startFill=0;endArrow=open;endFill=0;endSize=10;fontFamily=Verdana;fontSize=10;" parent="1" source="5d2195bd80daf111-20" target="5d2195bd80daf111-5" edge="1">
          <mxGeometry relative="1" as="geometry">
            <Array as="points">
              <mxPoint x="350" y="560" />
              <mxPoint x="350" y="560" />
            </Array>
          </mxGeometry>
        </mxCell>
        <mxCell id="5d2195bd80daf111-32" style="edgeStyle=orthogonalEdgeStyle;rounded=0;html=1;dashed=1;labelBackgroundColor=none;startFill=0;endArrow=open;endFill=0;endSize=10;fontFamily=Verdana;fontSize=10;" parent="1" source="5d2195bd80daf111-20" target="5d2195bd80daf111-12" edge="1">
          <mxGeometry relative="1" as="geometry">
            <Array as="points">
              <mxPoint x="170" y="780" />
            </Array>
          </mxGeometry>
        </mxCell>
        <mxCell id="5d2195bd80daf111-33" style="edgeStyle=orthogonalEdgeStyle;rounded=0;html=1;dashed=1;labelBackgroundColor=none;startFill=0;endArrow=open;endFill=0;endSize=10;fontFamily=Verdana;fontSize=10;" parent="1" source="5d2195bd80daf111-20" target="5d2195bd80daf111-11" edge="1">
          <mxGeometry relative="1" as="geometry">
            <Array as="points">
              <mxPoint x="140" y="978" />
            </Array>
          </mxGeometry>
        </mxCell>
        <mxCell id="5d2195bd80daf111-20" value="&lt;p style=&quot;margin: 0px ; margin-top: 4px ; text-align: center&quot;&gt;&lt;i&gt;&amp;lt;&amp;lt;Interface&amp;gt;&amp;gt;&lt;/i&gt;&lt;br&gt;AddingVehicle&lt;/p&gt;&lt;hr size=&quot;1&quot;&gt;&lt;p style=&quot;margin: 0px ; margin-left: 4px&quot;&gt;+ field1: Type&lt;br&gt;+ field2: Type&lt;/p&gt;&lt;hr size=&quot;1&quot;&gt;&lt;p style=&quot;margin: 0px ; margin-left: 4px&quot;&gt;+ method1(Type): Type&lt;br&gt;+ method2(Type, Type): Type&lt;/p&gt;" style="verticalAlign=top;align=left;overflow=fill;fontSize=12;fontFamily=Helvetica;html=1;rounded=0;shadow=0;comic=0;labelBackgroundColor=none;strokeWidth=1" parent="1" vertex="1">
          <mxGeometry x="60" y="450" width="190" height="140" as="geometry" />
        </mxCell>
        <mxCell id="5d2195bd80daf111-37" style="edgeStyle=orthogonalEdgeStyle;rounded=0;html=1;dashed=1;labelBackgroundColor=none;startFill=0;endArrow=open;endFill=0;endSize=10;fontFamily=Verdana;fontSize=10;" parent="1" source="5d2195bd80daf111-5" target="5d2195bd80daf111-9" edge="1">
          <mxGeometry relative="1" as="geometry">
            <Array as="points">
              <mxPoint x="570" y="590" />
            </Array>
          </mxGeometry>
        </mxCell>
      </root>
    </mxGraphModel>
  </diagram>
  <diagram id="6PuusAcydMID7-B2ni3S" name="Page-2">
    <mxGraphModel dx="1865" dy="524" grid="1" gridSize="10" guides="1" tooltips="1" connect="1" arrows="1" fold="1" page="1" pageScale="1" pageWidth="827" pageHeight="1169" math="0" shadow="0">
      <root>
        <mxCell id="ZHr7pMejOteAwTj5Rozd-0" />
        <mxCell id="ZHr7pMejOteAwTj5Rozd-1" parent="ZHr7pMejOteAwTj5Rozd-0" />
        <mxCell id="ZHr7pMejOteAwTj5Rozd-3" value="Log in/open app" style="rounded=0;whiteSpace=wrap;html=1;" vertex="1" parent="ZHr7pMejOteAwTj5Rozd-1">
          <mxGeometry x="150" y="20" width="120" height="60" as="geometry" />
        </mxCell>
        <mxCell id="ZHr7pMejOteAwTj5Rozd-31" value="" style="edgeStyle=orthogonalEdgeStyle;rounded=0;orthogonalLoop=1;jettySize=auto;html=1;" edge="1" parent="ZHr7pMejOteAwTj5Rozd-1" source="ZHr7pMejOteAwTj5Rozd-4" target="ZHr7pMejOteAwTj5Rozd-30">
          <mxGeometry relative="1" as="geometry" />
        </mxCell>
        <mxCell id="ZHr7pMejOteAwTj5Rozd-34" value="" style="edgeStyle=orthogonalEdgeStyle;rounded=0;orthogonalLoop=1;jettySize=auto;html=1;" edge="1" parent="ZHr7pMejOteAwTj5Rozd-1" source="ZHr7pMejOteAwTj5Rozd-4" target="ZHr7pMejOteAwTj5Rozd-33">
          <mxGeometry relative="1" as="geometry" />
        </mxCell>
        <mxCell id="ZHr7pMejOteAwTj5Rozd-4" value="SearchVehicle" style="rounded=0;whiteSpace=wrap;html=1;" vertex="1" parent="ZHr7pMejOteAwTj5Rozd-1">
          <mxGeometry x="150" y="100" width="120" height="60" as="geometry" />
        </mxCell>
        <mxCell id="ZHr7pMejOteAwTj5Rozd-5" value="SelectVehicle" style="rounded=0;whiteSpace=wrap;html=1;" vertex="1" parent="ZHr7pMejOteAwTj5Rozd-1">
          <mxGeometry x="150" y="180" width="120" height="60" as="geometry" />
        </mxCell>
        <mxCell id="ZHr7pMejOteAwTj5Rozd-6" value="UseVehicle" style="rounded=0;whiteSpace=wrap;html=1;" vertex="1" parent="ZHr7pMejOteAwTj5Rozd-1">
          <mxGeometry x="150" y="250" width="120" height="60" as="geometry" />
        </mxCell>
        <mxCell id="ZHr7pMejOteAwTj5Rozd-7" value="ReceiveBill" style="rounded=0;whiteSpace=wrap;html=1;" vertex="1" parent="ZHr7pMejOteAwTj5Rozd-1">
          <mxGeometry x="150" y="390" width="120" height="60" as="geometry" />
        </mxCell>
        <mxCell id="ZHr7pMejOteAwTj5Rozd-8" value="PayBill" style="rounded=0;whiteSpace=wrap;html=1;" vertex="1" parent="ZHr7pMejOteAwTj5Rozd-1">
          <mxGeometry x="150" y="470" width="120" height="60" as="geometry" />
        </mxCell>
        <mxCell id="ZHr7pMejOteAwTj5Rozd-9" value="ReviewVehicle" style="rounded=0;whiteSpace=wrap;html=1;" vertex="1" parent="ZHr7pMejOteAwTj5Rozd-1">
          <mxGeometry x="150" y="320" width="120" height="60" as="geometry" />
        </mxCell>
        <mxCell id="ZHr7pMejOteAwTj5Rozd-10" value="AddVehicle" style="rounded=0;whiteSpace=wrap;html=1;" vertex="1" parent="ZHr7pMejOteAwTj5Rozd-1">
          <mxGeometry x="610" y="110" width="120" height="60" as="geometry" />
        </mxCell>
        <mxCell id="ZHr7pMejOteAwTj5Rozd-11" value="LoginAsOwner" style="rounded=0;whiteSpace=wrap;html=1;" vertex="1" parent="ZHr7pMejOteAwTj5Rozd-1">
          <mxGeometry x="610" y="40" width="120" height="60" as="geometry" />
        </mxCell>
        <mxCell id="ZHr7pMejOteAwTj5Rozd-12" value="ReactOnReview" style="rounded=0;whiteSpace=wrap;html=1;" vertex="1" parent="ZHr7pMejOteAwTj5Rozd-1">
          <mxGeometry x="610" y="255" width="120" height="60" as="geometry" />
        </mxCell>
        <mxCell id="ZHr7pMejOteAwTj5Rozd-13" value="ReviewUser" style="rounded=0;whiteSpace=wrap;html=1;" vertex="1" parent="ZHr7pMejOteAwTj5Rozd-1">
          <mxGeometry x="610" y="320" width="120" height="60" as="geometry" />
        </mxCell>
        <mxCell id="ZHr7pMejOteAwTj5Rozd-14" value="ReceiveOverview" style="rounded=0;whiteSpace=wrap;html=1;" vertex="1" parent="ZHr7pMejOteAwTj5Rozd-1">
          <mxGeometry x="610" y="390" width="120" height="60" as="geometry" />
        </mxCell>
        <mxCell id="ZHr7pMejOteAwTj5Rozd-15" value="ReceiveMoney" style="rounded=0;whiteSpace=wrap;html=1;" vertex="1" parent="ZHr7pMejOteAwTj5Rozd-1">
          <mxGeometry x="610" y="460" width="120" height="60" as="geometry" />
        </mxCell>
        <mxCell id="ZHr7pMejOteAwTj5Rozd-18" value="Admin" style="ellipse;whiteSpace=wrap;html=1;aspect=fixed;" vertex="1" parent="ZHr7pMejOteAwTj5Rozd-1">
          <mxGeometry x="414" y="20" width="80" height="80" as="geometry" />
        </mxCell>
        <mxCell id="ZHr7pMejOteAwTj5Rozd-19" value="LoginAsAdmin" style="rounded=0;whiteSpace=wrap;html=1;" vertex="1" parent="ZHr7pMejOteAwTj5Rozd-1">
          <mxGeometry x="390" y="110" width="120" height="60" as="geometry" />
        </mxCell>
        <mxCell id="ZHr7pMejOteAwTj5Rozd-20" value="AdjustProfiles" style="rounded=0;whiteSpace=wrap;html=1;" vertex="1" parent="ZHr7pMejOteAwTj5Rozd-1">
          <mxGeometry x="390" y="180" width="120" height="60" as="geometry" />
        </mxCell>
        <mxCell id="ZHr7pMejOteAwTj5Rozd-23" value="RemoveVehicle" style="rounded=0;whiteSpace=wrap;html=1;" vertex="1" parent="ZHr7pMejOteAwTj5Rozd-1">
          <mxGeometry x="610" y="180" width="120" height="60" as="geometry" />
        </mxCell>
        <mxCell id="ZHr7pMejOteAwTj5Rozd-25" value="" style="endArrow=classic;html=1;exitX=0.358;exitY=0.967;exitDx=0;exitDy=0;exitPerimeter=0;" edge="1" parent="ZHr7pMejOteAwTj5Rozd-1" source="ZHr7pMejOteAwTj5Rozd-20">
          <mxGeometry width="50" height="50" relative="1" as="geometry">
            <mxPoint x="440" y="255" as="sourcePoint" />
            <mxPoint x="394.22662562524056" y="280" as="targetPoint" />
          </mxGeometry>
        </mxCell>
        <mxCell id="ZHr7pMejOteAwTj5Rozd-26" value="" style="endArrow=classic;html=1;exitX=0.683;exitY=1.033;exitDx=0;exitDy=0;exitPerimeter=0;" edge="1" parent="ZHr7pMejOteAwTj5Rozd-1" source="ZHr7pMejOteAwTj5Rozd-20">
          <mxGeometry width="50" height="50" relative="1" as="geometry">
            <mxPoint x="460" y="260" as="sourcePoint" />
            <mxPoint x="490" y="280" as="targetPoint" />
          </mxGeometry>
        </mxCell>
        <mxCell id="ZHr7pMejOteAwTj5Rozd-36" value="" style="edgeStyle=orthogonalEdgeStyle;rounded=0;orthogonalLoop=1;jettySize=auto;html=1;" edge="1" parent="ZHr7pMejOteAwTj5Rozd-1" source="ZHr7pMejOteAwTj5Rozd-30" target="ZHr7pMejOteAwTj5Rozd-33">
          <mxGeometry relative="1" as="geometry" />
        </mxCell>
        <mxCell id="ZHr7pMejOteAwTj5Rozd-30" value="on map" style="rhombus;whiteSpace=wrap;html=1;rounded=0;" vertex="1" parent="ZHr7pMejOteAwTj5Rozd-1">
          <mxGeometry x="-10" y="30" width="80" height="80" as="geometry" />
        </mxCell>
        <mxCell id="ZHr7pMejOteAwTj5Rozd-33" value="inList" style="rounded=0;whiteSpace=wrap;html=1;" vertex="1" parent="ZHr7pMejOteAwTj5Rozd-1">
          <mxGeometry x="10" y="140" width="60" height="50" as="geometry" />
        </mxCell>
        <mxCell id="ZHr7pMejOteAwTj5Rozd-38" value="Actor" style="shape=umlActor;verticalLabelPosition=bottom;verticalAlign=top;html=1;outlineConnect=0;" vertex="1" parent="ZHr7pMejOteAwTj5Rozd-1">
          <mxGeometry x="494" y="320" width="30" height="60" as="geometry" />
        </mxCell>
        <mxCell id="ZHr7pMejOteAwTj5Rozd-43" value="Actor" style="shape=umlActor;verticalLabelPosition=bottom;verticalAlign=top;html=1;outlineConnect=0;" vertex="1" parent="ZHr7pMejOteAwTj5Rozd-1">
          <mxGeometry x="330" y="315" width="30" height="60" as="geometry" />
        </mxCell>
        <mxCell id="ZHr7pMejOteAwTj5Rozd-44" value="User" style="text;html=1;strokeColor=none;fillColor=none;align=center;verticalAlign=middle;whiteSpace=wrap;rounded=0;" vertex="1" parent="ZHr7pMejOteAwTj5Rozd-1">
          <mxGeometry x="324" y="395" width="40" height="20" as="geometry" />
        </mxCell>
        <mxCell id="ZHr7pMejOteAwTj5Rozd-45" value="Owner" style="text;html=1;strokeColor=none;fillColor=none;align=center;verticalAlign=middle;whiteSpace=wrap;rounded=0;" vertex="1" parent="ZHr7pMejOteAwTj5Rozd-1">
          <mxGeometry x="489" y="400" width="40" height="20" as="geometry" />
        </mxCell>
        <mxCell id="ZHr7pMejOteAwTj5Rozd-47" value="add/remove/send accountinfo" style="text;html=1;strokeColor=none;fillColor=none;align=center;verticalAlign=middle;whiteSpace=wrap;rounded=0;" vertex="1" parent="ZHr7pMejOteAwTj5Rozd-1">
          <mxGeometry x="350" y="285" width="40" height="20" as="geometry" />
        </mxCell>
        <mxCell id="ZHr7pMejOteAwTj5Rozd-48" value="add/remove/send accountinfo" style="text;html=1;strokeColor=none;fillColor=none;align=center;verticalAlign=middle;whiteSpace=wrap;rounded=0;" vertex="1" parent="ZHr7pMejOteAwTj5Rozd-1">
          <mxGeometry x="470" y="290" width="40" height="20" as="geometry" />
        </mxCell>
        <mxCell id="ZHr7pMejOteAwTj5Rozd-49" value="" style="endArrow=classic;html=1;entryX=-0.033;entryY=0.4;entryDx=0;entryDy=0;entryPerimeter=0;" edge="1" parent="ZHr7pMejOteAwTj5Rozd-1" target="ZHr7pMejOteAwTj5Rozd-23">
          <mxGeometry width="50" height="50" relative="1" as="geometry">
            <mxPoint x="510" y="205" as="sourcePoint" />
            <mxPoint x="600" y="200.90909090909088" as="targetPoint" />
          </mxGeometry>
        </mxCell>
        <mxCell id="ZHr7pMejOteAwTj5Rozd-51" value="Description" style="text;html=1;strokeColor=none;fillColor=none;align=center;verticalAlign=middle;whiteSpace=wrap;rounded=0;" vertex="1" parent="ZHr7pMejOteAwTj5Rozd-1">
          <mxGeometry x="760" y="100" width="40" height="20" as="geometry" />
        </mxCell>
        <mxCell id="ZHr7pMejOteAwTj5Rozd-52" value="MakeProfile" style="rounded=0;whiteSpace=wrap;html=1;" vertex="1" parent="ZHr7pMejOteAwTj5Rozd-1">
          <mxGeometry x="374" y="440" width="120" height="60" as="geometry" />
        </mxCell>
        <mxCell id="ZHr7pMejOteAwTj5Rozd-53" value="Name" style="text;html=1;strokeColor=none;fillColor=none;align=center;verticalAlign=middle;whiteSpace=wrap;rounded=0;" vertex="1" parent="ZHr7pMejOteAwTj5Rozd-1">
          <mxGeometry x="750" y="70" width="40" height="20" as="geometry" />
        </mxCell>
        <mxCell id="ZHr7pMejOteAwTj5Rozd-54" value="Text" style="text;html=1;strokeColor=none;fillColor=none;align=center;verticalAlign=middle;whiteSpace=wrap;rounded=0;" vertex="1" parent="ZHr7pMejOteAwTj5Rozd-1">
          <mxGeometry x="470" y="250" width="40" height="20" as="geometry" />
        </mxCell>
        <mxCell id="ZHr7pMejOteAwTj5Rozd-55" value="Car/Bike/Other" style="text;html=1;strokeColor=none;fillColor=none;align=center;verticalAlign=middle;whiteSpace=wrap;rounded=0;" vertex="1" parent="ZHr7pMejOteAwTj5Rozd-1">
          <mxGeometry x="750" y="130" width="40" height="20" as="geometry" />
        </mxCell>
        <mxCell id="ZHr7pMejOteAwTj5Rozd-56" value="Location" style="text;html=1;strokeColor=none;fillColor=none;align=center;verticalAlign=middle;whiteSpace=wrap;rounded=0;" vertex="1" parent="ZHr7pMejOteAwTj5Rozd-1">
          <mxGeometry x="750" y="170" width="40" height="20" as="geometry" />
        </mxCell>
        <mxCell id="ZHr7pMejOteAwTj5Rozd-57" value="Price" style="text;html=1;strokeColor=none;fillColor=none;align=center;verticalAlign=middle;whiteSpace=wrap;rounded=0;" vertex="1" parent="ZHr7pMejOteAwTj5Rozd-1">
          <mxGeometry x="750" y="200" width="40" height="20" as="geometry" />
        </mxCell>
        <mxCell id="ZHr7pMejOteAwTj5Rozd-58" value="Contact" style="text;html=1;strokeColor=none;fillColor=none;align=center;verticalAlign=middle;whiteSpace=wrap;rounded=0;" vertex="1" parent="ZHr7pMejOteAwTj5Rozd-1">
          <mxGeometry x="750" y="230" width="40" height="20" as="geometry" />
        </mxCell>
      </root>
    </mxGraphModel>
  </diagram>
</mxfile>
